<svg xmlns="http://www.w3.org/2000/svg" width="256" height="256" viewBox="0 0 100 100"><rect width="100" height="100" rx="20" fill="#5fc369"></rect><path fill="#fff" d="M27.83 60.29L27.83 24.93L33.82 24.93L33.82 60.29Q33.82 65.02 32.08 68.33Q30.34 71.64 27.18 73.35Q24.02 75.07 19.72 75.07L19.72 75.07Q15.66 75.07 12.50 73.58Q9.34 72.10 7.52 69.34Q5.71 66.59 5.71 62.80L5.71 62.80L11.61 62.80Q11.61 64.90 12.66 66.46Q13.71 68.01 15.54 68.88Q17.38 69.75 19.72 69.75L19.72 69.75Q22.30 69.75 24.11 68.67Q25.92 67.58 26.88 65.47Q27.83 63.35 27.83 60.29L27.83 60.29ZM45.80 74.39L45.80 24.93L52.95 24.93L69.75 65.99L70.33 65.99L87.14 24.93L94.29 24.93L94.29 74.39L88.68 74.39L88.68 36.82L88.20 36.82L72.75 74.39L67.34 74.39L51.88 36.82L51.40 36.82L51.40 74.39L45.80 74.39Z"></path></svg>